<?xml version="1.0"?>
<svg version="1.1" xmlns="http://www.w3.org/2000/svg" width="250" height="70" style=""><path fill="#00c907" d="M45,29.9l-3.15,0l0,16l-21.1,0l0-16l-3.15,0l0,35.1l3.15,0l0-15.95l21.1,0l0,15.95l3.15,0l0-35.1z M66.892,30q-5.65,0-9.7,4.05q-4.1,4.1-4.1,9.75l0,7.55q0,5.55,4.1,9.65t9.7,4.1q5.65,0,9.75-4.1q4.05-4.05,4.05-9.65l0-7.55q0-5.7-4.05-9.75t-9.75-4.05z M77.592,43.8l0,7.55q0,4.55-3.2,7.65q-3.15,3-7.5,3t-7.45-3q-3.2-3.1-3.2-7.65l0-7.55q0-4.2,3.2-7.5q3.2-3.2,7.45-3.2q4.2,0,7.5,3.2q3.2,3.3,3.2,7.5z M103.284,47.45l3.75,0q3.8,0,6.3-2.5t2.5-6.3q0-3.35-2.5-6q-2.65-2.75-6.3-2.75l-15.65,0l-3.1,0l0,35.1l3.1,0l0-17.55l8.15,0l10.65,17.55l3.75,0z M91.384,44.35l0-11.3l15.65,0q2.3,0,4.05,1.65q1.65,1.65,1.65,3.95q0,2.4-1.65,4.05q-1.75,1.65-4.05,1.65l-15.65,0z M123.326,65.05l3.15,0l0-35.15l-3.15,0l0,35.15z M155.868,33.05l-22.55,32l28.2,0l0-2.5l-22.55,0l22.55-32.6l-27.6,0l0,3.1l21.95,0z M181.61,30q-5.65,0-9.7,4.05q-4.1,4.1-4.1,9.75l0,7.55q0,5.55,4.1,9.65t9.7,4.1q5.65,0,9.75-4.1q4.05-4.05,4.05-9.65l0-7.55q0-5.7-4.05-9.75t-9.75-4.05z M192.31,43.8l0,7.55q0,4.55-3.2,7.65q-3.15,3-7.5,3t-7.45-3q-3.2-3.1-3.2-7.65l0-7.55q0-4.2,3.2-7.5q3.2-3.2,7.45-3.2q4.2,0,7.5,3.2q3.2,3.3,3.2,7.5z M202.752,65l3.1,0l0-21.2q0-4.2,3.2-7.5q3.2-3.2,7.4-3.2t7.5,3.2q3.2,3.3,3.2,7.5l0,21.2l3.1,0l0-21.2q0-5.7-4.05-9.75t-9.75-4.05q-5.6,0-9.65,4.05t-4.05,9.75l0,21.2z"/><path fill="#" d=""/></svg>
